<svg width="26" height="26" viewBox="0 0 26 26" fill="none" xmlns="http://www.w3.org/2000/svg">
  <path
    d="M13 0.835938C6.91444 0.840039 1.87216 5.30459 0.966003 11.137L7.15556 11.1484C7.94628 8.6749 10.2637 6.88428 13 6.88281C15.7319 6.88604 18.0461 8.67373 18.8397 11.1429L25.0272 11.1484C24.1275 5.3125 19.0864 0.843555 13 0.835938ZM13 9.03906C10.7995 9.03906 9.01561 10.8229 9.01561 13.0234C9.01561 15.2239 10.7995 17.0078 13 17.0078C15.2005 17.0078 16.9844 15.2239 16.9844 13.0234C16.9844 10.8229 15.2005 9.03906 13 9.03906ZM0.972742 14.8984C1.87245 20.7344 6.91356 25.2033 13 25.2109C19.0855 25.2068 24.1278 20.7423 25.034 14.9099L18.8444 14.8984C18.0537 17.372 15.7363 19.1626 13 19.1641C10.2681 19.1608 7.9539 17.3731 7.16024 14.904L0.972742 14.8984Z"
    fill="currentColor" />
</svg>